<svg width="500" height="500" viewBox="0 0 500 500" xmlns="http://www.w3.org/2000/svg">
  <rect width="500" height="500" fill="#FFD700"/>
  <circle cx="180" cy="200" r="45" fill="black"/>
  <circle cx="320" cy="200" r="45" fill="black"/>
  

  <!-- 像素风格的嘴巴 -->
  <g fill="#FF8C00">
    <!-- 第一行像素 -->
    <rect x="150" y="280" width="20" height="40"/>
    <rect x="170" y="280" width="20" height="40"/>
    <rect x="190" y="280" width="20" height="40"/>
    <rect x="210" y="280" width="20" height="40"/>
    <rect x="230" y="280" width="20" height="40"/>
    <rect x="250" y="280" width="20" height="40"/>
    <rect x="270" y="280" width="20" height="40"/>
    <rect x="290" y="280" width="30" height="40"/>
    <rect x="320" y="280" width="10" height="50"/>
    <rect x="330" y="280" width="20" height="50"/>

    <rect x="150" y="330" width="20" height="40"/>
    <rect x="170" y="330" width="20" height="40"/>
    <rect x="190" y="330" width="20" height="40"/>
    <rect x="210" y="330" width="20" height="40"/>
    <rect x="230" y="330" width="20" height="40"/>
    <rect x="250" y="330" width="20" height="40"/>
    <rect x="270" y="330" width="20" height="40"/>
    <rect x="290" y="330" width="20" height="40"/>
    <rect x="310" y="330" width="20" height="40"/>
    <rect x="330" y="330" width="20" height="40"/>
  </g>
  <g fill="#D2691E">
    <!-- <rect x="155" y="275" width="200" height="5"/> -->
    <!-- <rect x="350" y="275" width="5" height="100"/> -->
    <!-- <rect x="155" y="370" width="200" height="5"/> -->
    <rect x="155" y="320" width="170" height="10"/>


  </g>
</svg>